PathFileType	4	(X/Y/Z)	C:/Users/beibeiliu/ov580/test_trc/User3\out1_training_dense_left.trc
DataRate	CameraRate	NumFrames	NumMarkers	Units	OrigDataRate	OrigDataStartFrame	OrigNumFrames
120	120	22	19	mm	120	376	500
Frame#	Time	ThumbCMC			ThumbMCP			ThumbIP			ThumbTip			IndexMCP			IndexPIP			IndexTip			MiddleMCP			MiddlePIP			MiddleTip			RingMCP			RingPIP			RingTip			PinkyMCP			PinkyPIP			PinkyTip			BackHand1			BackHand2			BackHand3	
		X0	Y0	Z0	X1	Y1	Z1	X2	Y2	Z2	X3	Y3	Z3	X4	Y4	Z4	X5	Y5	Z5	X6	Y6	Z6	X7	Y7	Z7	X8	Y8	Z8	X9	Y9	Z9	X10	Y10	Z10	X11	Y11	Z11	X12	Y12	Z12	X13	Y13	Z13	X14	Y14	Z14	X15	Y15	Z15	X16	Y16	Z16	X17	Y17	Z17	X18	Y18	Z18	
375	3.125	-109.779	34.2903	45.4472	-74.6728	20.5895	40.3531	-54.0478	-3.64565	36.1361	-62.2588	-34.7006	32.2648	-76.8789	-10.8492	2.46318	-65.3198	-16.4898	32.5271	-93.5204	5.1665	37.4657	-86.0839	-28.5649	4.06714	-71.2086	-30.6683	36.27	-99.1339	-7.00672	48.369	-98.9349	-37.6491	15.4108	-85.9981	-35.4367	45.1371	-111.035	-10.8895	58.1446	-111.092	-48.2214	29.2294	-103.409	-37.6553	51.3002	-119.723	-14.0178	61.234	-144.967	-11.206	7.80805	-165.235	5.14628	31.2632	-138.318	25.473	19.4347	
376	3.13333	-110.088	39.916	41.4706	-72.2396	34.1815	39.0659	-52.9345	11.4603	35.8401	-50.4886	-15.5218	37.6962	-66.5877	-2.33594	5.47827	-58.2183	1.01508	36.8891	-86.4545	12.9936	39.8645	-74.7152	-21.4694	8.43572	-59.5886	-13.6931	38.5847	-92.1429	5.38709	49.9969	-83.1207	-32.0726	24.0693	-77.5992	-26.1965	51.7167	-96.8238	-1.95856	61.0512	-94.6762	-38.8899	33.1034	-90.8636	-28.0765	56.645	-110.663	-3.60144	62.6042	-140.871	-11.5566	13.0075	-157.701	2.41591	30.2446	-132.545	23.0618	14.7604	
377	3.14167	-112.323	49.339	39.332	-76.511	45.4501	35.4655	-52.1451	28.328	34.5866	-44.5382	3.60331	38.3839	-62.031	14.0765	4.03745	-53.3836	18.8016	33.7095	-84.9225	22.5237	38.1905	-62.6733	-6.59827	9.44052	-52.0247	1.11032	37.5702	-89.5809	12.9151	50.0684	-72.999	-17.6512	23.9952	-67.6274	-10.7343	50.8723	-92.7845	8.61902	60.3217	-85.875	-29.9901	34.2337	-81.3617	-17.6885	58.8347	-103.539	2.4204	63.9345	-131.607	-9.58623	14.5708	-153.34	-3.4694	33.1997	-134.192	23.8334	14.1573	
378	3.15	-115.447	55.1044	33.6285	-80.2362	58.9661	30.9916	-51.0856	48.8021	31.2649	-44.0922	20.7081	35.9029	-60.6552	25.1747	1.59112	-53.6033	34.7084	32.409	-85.4129	30.4605	36.2164	-61.561	5.6301	8.77523	-53.0392	14.5204	39.8315	-88.4943	23.4567	48.9376	-70.8095	-8.81965	23.2142	-62.1405	3.29917	51.8126	-94.2141	18.8973	58.6802	-75.7332	-18.8668	36.6231	-75.9665	-3.82488	60.1128	-98.828	11.7047	63.3404	-126.38	-9.947	16.5999	-149.935	-4.29191	31.0907	-136.098	27.5647	12.7739	
379	3.15833	-123.014	62.0795	31.9837	-89.4319	72.7588	27.6617	-62.2783	62.018	26.7988	-42.1467	39.4083	32.4017	-67.1062	36.3892	-3.2288	-52.2459	44.4151	25.0972	-87.0526	42.3832	32.0183	-59.3493	19.0871	6.31882	-49.8426	28.5688	33.9462	-87.5106	33.9589	45.9007	-63.3446	8.54077	21.5252	-59.7971	16.6734	48.0607	-89.3382	27.2115	57.008	-69.8009	-4.41642	34.2303	-69.7246	9.33579	56.5993	-98.3558	13.984	63.5405	-121.547	-8.08375	18.4673	-145.543	-2.9138	33.1065	-135.714	30.412	12.542	
380	3.16667	-127.72	61.1079	29.014	-96.5925	78.7066	22.0473	-65.9005	75.0033	19.1574	-51.4938	51.5567	25.3938	-68.5864	49.2025	-8.36814	-58.274	57.7161	19.9551	-90.4571	53.6811	27.4421	-64.4478	28.5837	2.02221	-52.2348	42.8518	30.3131	-94.1695	40.1342	41.9845	-63.8491	17.8951	18.3093	-61.8281	33.1245	46.2176	-94.5621	34.0782	52.0768	-66.2813	5.03402	31.8149	-67.8995	20.2699	52.1051	-97.8767	19.3509	58.7422	-115.833	-4.06233	12.6428	-141.25	0.545186	31.8227	-134.979	27.7311	10.6014	
381	3.175	-133.984	61.7828	26.2333	-107.04	83.4312	16.0444	-74.9033	85.3225	10.0866	-56.372	66.4859	18.5348	-73.1087	56.0706	-12.0974	-64.8959	73.0489	10.7139	-96.6226	56.319	21.7623	-63.4521	40.1033	-1.1883	-58.4664	56.324	25.5417	-94.8235	46.9978	37.8702	-64.0872	25.7468	13.5334	-63.3981	43.4974	39.7271	-94.4413	39.2352	49.3618	-66.6612	14.5047	26.1702	-68.8182	30.4371	49.982	-97.4179	27.4612	52.5145	-114.72	-0.629005	11.6151	-139.925	-1.41888	33.9006	-139.626	27.4072	11.4957	
382	3.18333	-144.028	64.6441	24.335	-119.302	83.4235	11.6845	-90.7352	93.5235	4.72566	-64.4063	79.2099	8.29104	-85.4735	61.7556	-18.9538	-76.1487	79.7709	8.10556	-104.439	64.0353	16.9374	-70.5375	51.2958	-9.21621	-66.6952	69.8135	17.515	-99.8137	50.9241	32.8891	-65.0201	39.3142	7.5916	-66.5772	53.0402	32.9029	-98.9836	42.5803	43.5269	-62.2317	26.4987	23.21	-69.9779	41.6624	41.5055	-98.5033	29.259	52.278	-113.035	5.4826	8.5669	-133.856	-0.194066	33.395	-140.391	23.2878	10.8251	
383	3.19167	-145.794	55.8421	18.9157	-131.965	84.1335	5.95633	-102.411	90.1255	-4.38082	-75.4451	81.5563	-0.71946	-95.1192	64.9538	-27.8076	-86.3465	82.7691	-3.62472	-112.969	63.377	10.008	-77.893	48.8174	-15.2628	-72.5682	71.618	7.58024	-107.696	54.7628	25.3626	-73.236	44.7212	0.0732483	-74.8251	61.8865	24.2476	-103.225	47.807	34.5744	-66.0997	33.2266	16.2023	-77.2062	50.0412	35.9698	-100.471	31.1226	44.3872	-112.251	4.24746	9.28395	-130.181	-6.2626	35.6035	-145.036	22.2327	9.25073	
384	3.2	-157.592	49.7609	20.0935	-140.69	74.7595	-0.960499	-118.368	90.5811	-13.6965	-89.5888	83.2723	-9.82269	-103.533	59.6853	-32.0139	-99.4786	81.8697	-12.0602	-116.874	57.4642	7.31218	-89.2838	49.5634	-23.2103	-85.0438	73.2406	-0.941144	-113.059	50.1808	19.1233	-78.9971	43.5246	-6.30488	-79.9177	62.8409	17.857	-105.923	42.321	31.5932	-71.4361	33.1334	9.32086	-81.8091	53.7791	28.004	-104.209	34.5076	39.7662	-108.535	-1.06126	9.02325	-124.412	-9.92035	35.5633	-143.017	11.5316	7.64196	
385	3.20833	-158.91	40.8689	17.4771	-150.899	66.3776	-6.12773	-131.256	82.0341	-18.6092	-100.926	81.309	-19.6982	-116.225	47.6708	-36.3357	-114.689	77.2602	-20.1469	-128.823	52.8741	2.76965	-100.097	46.8076	-29.8521	-97.9896	70.5395	-7.5634	-119.237	46.0848	13.9667	-86.2842	39.7296	-11.4433	-91.4431	63.6139	7.21103	-114.612	39.9472	25.7981	-76.1804	33.6683	3.36826	-85.1791	54.8054	18.7963	-106.272	35.2439	34.8582	-111.275	-5.91409	10.2969	-128.544	-9.68798	39.537	-146.073	5.67531	12.086	
386	3.21667	-166.432	27.8056	19.4439	-161.243	53.9124	-8.02605	-144.774	70.2033	-26.2141	-115.135	70.1725	-27.8038	-129.392	39.7335	-43.3255	-124.329	64.614	-23.8102	-138.894	46.0884	-0.40413	-109.006	36.4095	-35.8782	-111.094	63.7231	-18.9134	-127.306	38.0704	9.38372	-97.2918	34.5161	-20.2305	-101.886	56.4934	-1.89217	-118.353	37.7895	21.4086	-87.993	27.925	-5.63048	-97.1551	49.3017	14.4555	-109.581	30.3699	29.3046	-113.655	-12.1373	7.41703	-127.642	-17.2557	38.6002	-150.705	-7.37043	11.2776	
387	3.225	-178.141	21.9208	16.5438	-174.688	44.2566	-8.97052	-158.837	57.0385	-31.4026	-130.399	57.4241	-35.3665	-145.867	26.6961	-45.7678	-140.858	54.4441	-31.3221	-146.682	37.2264	-3.98217	-125.016	25.8882	-41.855	-123.997	51.9215	-27.4335	-135.172	32.7674	5.60294	-109.699	22.0272	-26.5587	-111.62	47.9273	-8.90503	-129.042	30.0131	17.0428	-97.8429	20.2509	-12.9104	-106.087	42.3219	7.03828	-117.432	25.8158	24.8498	-124.422	-19.9512	7.70252	-130.99	-24.2556	37.6726	-159.434	-13.843	15.7022	
388	3.23333	-186.315	11.6186	17.8004	-187.354	31.5727	-6.54591	-176.387	43.0947	-35.5629	-145.893	42.1398	-43.6507	-161.22	6.32468	-46.2659	-155.372	36.4467	-39.5357	-157.812	23.9061	-5.61998	-142.783	7.86801	-45.5548	-136.549	35.8537	-33.8129	-145.659	22.9432	1.62438	-124.562	7.17842	-30.7017	-124.534	35.1272	-16.6088	-140.558	23.0667	10.3759	-114.369	9.10395	-19.1401	-116.362	30.1493	-3.62832	-129.705	18.218	19.0937	-137.489	-30.3376	11.2179	-143.13	-28.8086	44.5733	-172.518	-24.581	20.1667	
389	3.24167	-193.292	4.67632	25.9109	-196.994	17.6371	-7.16825	-191.005	25.5095	-37.9711	-161.863	19.9988	-48.8714	-183.169	-11.825	-42.5797	-171.276	18.5204	-44.385	-172.676	16.582	-8.86104	-157.941	-14.585	-43.8055	-154.835	20.3839	-36.4281	-160.534	10.8758	-0.663316	-139.695	-11.0057	-33.3284	-136.368	18.7079	-22.3744	-145.498	12.514	7.35768	-126.292	-7.1605	-23.6318	-131.687	16.9495	-9.28541	-140.319	7.16423	14.3748	-147.973	-40.9349	15.2771	-149.605	-33.1443	47.8795	-181.052	-32.2136	25.4384	
390	3.25	-207.51	-0.843836	25.7289	-210.146	6.72845	-6.54325	-205.377	10.5379	-36.1075	-181.73	2.94383	-50.3595	-200.358	-27.4331	-36.7772	-185.987	0.958988	-43.5672	-183.296	3.41417	-10.3608	-178.458	-29.5653	-41.3075	-171.19	1.65947	-39.8128	-173.296	0.730022	-1.2953	-156.14	-26.6015	-34.0818	-153.196	2.48057	-25.1558	-158.956	-0.720431	8.95404	-141.965	-27.3592	-23.7746	-143.68	0.515638	-15.1118	-148.402	-1.24912	12.302	-165.058	-53.4752	17.5446	-156.566	-44.1512	49.2235	-193.405	-40.0055	33.382	
391	3.25833	-210.773	-2.08818	30.9069	-221.853	4.41942	-3.09737	-218.757	1.09148	-36.2861	-195.759	-9.62652	-47.539	-217.506	-35.1991	-30.8082	-204.807	-5.44341	-41.3119	-195.719	-4.08596	-5.1033	-197.041	-40.7112	-36.3739	-187.489	-9.12469	-40.16	-182.838	-8.54974	1.12316	-179.018	-38.3063	-32.0475	-164.526	-12.3489	-29.9507	-169.238	-6.67447	5.90949	-158.468	-40.0164	-22.7205	-156.03	-12.1917	-17.6576	-159.594	-10.159	10.535	-177.808	-61.6418	22.8905	-172.458	-43.6514	55.0053	-203.819	-39.4684	40.4565	
392	3.26667	-221.255	1.00248	33.0579	-232.124	8.13401	-0.79069	-229.226	2.73441	-27.2358	-213.878	-8.72936	-43.7862	-232.326	-36.5567	-26.8352	-216.734	-9.25822	-37.7217	-206.379	-6.20599	-3.22731	-215.453	-44.1739	-29.1992	-197.103	-17.7405	-38.6558	-194.695	-11.2939	2.86057	-195.896	-45.8648	-25.6943	-182.953	-18.6703	-29.5784	-181.664	-9.89515	3.67614	-177.098	-47.2343	-21.2639	-171.044	-23.5982	-19.7966	-171.78	-15.8772	8.80941	-196.405	-59.6131	29.5838	-185.241	-47.2698	55.1039	-216.927	-38.3241	44.6727	
393	3.275	-225.297	7.07249	37.4176	-239.097	15.3733	3.33408	-241.608	6.09332	-28.0086	-224.354	-11.7084	-39.1664	-246.976	-31.4977	-21.1288	-228.224	-7.11091	-33.3413	-216.469	-6.14164	-0.0656357	-231.157	-42.0524	-24.4731	-211.244	-16.1778	-33.0442	-205.96	-9.78037	5.49587	-212.797	-48.869	-19.9239	-194.176	-23.4361	-25.7254	-193.468	-12.7465	8.40435	-194.818	-52.7901	-17.3846	-185.298	-25.7812	-16.2017	-181.685	-19.8681	14.7132	-211.105	-60.5068	33.9632	-198.004	-44.5409	58.1809	-226.908	-31.343	51.4241	
394	3.28333	-230.16	12.2182	39.3639	-242.695	24.303	6.66635	-249.759	13.9437	-23.4179	-239.856	-3.60652	-40.6584	-264.909	-18.7867	-14.8499	-240.018	0.889326	-29.7821	-228.689	1.891	-0.320522	-250.927	-33.6575	-18.2706	-227.581	-12.7615	-31.8338	-216.954	-8.93129	9.65391	-233.369	-42.6952	-16.6332	-210.118	-20.0057	-22.7966	-200.803	-13.614	8.49576	-215.104	-53.9927	-13.7499	-200.584	-29.4071	-16.1219	-193.673	-22.6652	14.5326	-231.61	-52.4538	37.7601	-213.2	-41.4785	60.9643	-240.99	-20.9088	54.6262	
395	3.29167	-235.253	22.362	39.5312	-245.592	29.5045	9.4949	-254.915	25.7267	-18.469	-252.64	5.75961	-36.7987	-278.419	-1.73572	-9.44727	-251.67	6.09131	-27.8955	-236.263	7.31611	0.204363	-266.521	-20.8868	-16.8373	-240.389	-5.23127	-27.7482	-226.989	-1.58756	8.7361	-249.985	-33.6889	-14.9993	-226.799	-18.2225	-21.8459	-216.204	-9.69164	12.0375	-239.683	-44.8409	-10.0045	-215.059	-28.2322	-13.7135	-209.905	-19.6871	17.3631	-250.784	-41.7656	40.9693	-224.788	-38.0132	64.4288	-248.457	-12.4697	58.6684	
396	3.3	-234.72	29.9326	42.404	-246.357	41.0713	12.1671	-260.72	41.0219	-17.7323	-262.242	17.3225	-34.4967	-285.932	15.466	-5.20695	-259.404	18.5116	-24.4944	-244.472	14.2819	7.53008	-280.006	-6.57766	-8.75744	-249.826	5.67451	-23.5342	-237.355	3.11477	14.1892	-266.386	-20.4436	-11.0291	-240.788	-12.347	-19.6797	-226.085	-5.05286	14.2615	-255.859	-35.2651	-8.2901	-231.896	-23.1716	-11.9929	-224.558	-14.8304	13.736	-265.113	-30.584	46.4953	-239.727	-33.065	67.5122	-258.387	0.612667	58.8694	
